<?xml version="1.0" encoding="utf-8"?>
<!-- Generator: Adobe Illustrator 16.0.0, SVG Export Plug-In . SVG Version: 6.00 Build 0)  -->
<!DOCTYPE svg PUBLIC "-//W3C//DTD SVG 1.1//EN" "http://www.w3.org/Graphics/SVG/1.1/DTD/svg11.dtd">
<svg version="1.1" id="Layer_1" xmlns="http://www.w3.org/2000/svg" xmlns:xlink="http://www.w3.org/1999/xlink" x="0px" y="0px"
	 width="50px" height="70px" viewBox="0 0 50 70" enable-background="new 0 0 50 70" xml:space="preserve">
<g>
	<path fill="#45A57F" d="M17.905,45.57h8.505c1.918,0,3.367-0.314,4.342-0.945s1.463-1.604,1.463-2.926
		c0-2.609-1.936-3.914-5.805-3.914h-8.505V45.57z"/>
	<path fill="#45A57F" d="M12.875,51.061H10.66v-31.5h15.389c2.484,0,4.589,0.313,6.326,0.928V5.163L25,0L0,17.501v34.998
		l12.875,9.014V51.061z"/>
	<path fill="#45A57F" d="M30.639,28.74c0-1.23-0.465-2.152-1.395-2.768c-0.93-0.615-2.295-0.922-4.095-0.922h-7.244v7.425h7.244
		c1.8,0,3.166-0.315,4.095-0.945C30.174,30.9,30.639,29.971,30.639,28.74z"/>
	<path fill="#45A57F" d="M33.375,5.863v15.033c0.548,0.255,1.059,0.541,1.518,0.869c2.055,1.47,3.082,3.465,3.082,5.985
		c0,1.53-0.367,2.896-1.104,4.095c-0.734,1.2-1.762,2.145-3.082,2.835c1.801,0.57,3.211,1.523,4.23,2.857
		c1.02,1.336,1.529,2.979,1.529,4.928c0,2.76-1.072,4.883-3.217,6.367c-2.145,1.486-5.273,2.229-9.383,2.229H13.875v11.152
		L24.5,69.65V60h1v9.649L50,52.499V17.501L33.375,5.863z"/>
</g>
</svg>
